<mxfile host="app.diagrams.net" modified="2024-07-03T07:25:23.627Z" agent="Mozilla/5.0 (X11; Linux x86_64; rv:122.0) Gecko/20100101 Firefox/122.0" version="24.6.4" etag="_ITBxIFjDleLSfHWiCOF" type="github">
  <diagram name="Страница — 1" id="VKMV_SKVlXoffhuY-rsW">
    <mxGraphModel>
      <root>
        <mxCell id="0" />
        <mxCell id="1" parent="0" />
      </root>
    </mxGraphModel>
  </diagram>
</mxfile>
